<?xml version="1.0" encoding="UTF-8"?>
<svg id="Layer_2" data-name="Layer 2" xmlns="http://www.w3.org/2000/svg" viewBox="0 0 872.34 330.35">

  <path d="m172.41,330.35c-37.96,0-69.69-7.67-95.21-23-25.52-15.33-44.77-35.71-57.74-61.12C6.48,220.82,0,193,0,162.76s6.06-56.4,18.17-81.06c12.11-24.66,29.8-44.44,53.07-59.35C94.51,7.45,122.66,0,155.68,0c28.09,0,52.43,5.68,73.02,17.05,20.59,11.37,36.4,27.24,47.45,47.61,11.04,20.38,16.57,44.18,16.57,71.41,0,5.58-.27,11.37-.8,17.37-.54,6.01-1.45,12.33-2.73,18.98H69.48c2.78,25.09,9.43,44.98,19.94,59.67,10.5,14.69,23.59,25.15,39.24,31.36,15.65,6.22,32.59,9.33,50.82,9.33,16.29,0,32.38-1.87,48.25-5.63,15.87-3.75,30.77-9.17,44.71-16.24l6.11,55c-12.22,5.79-27.24,11.31-45.03,16.57-17.8,5.25-38.17,7.88-61.12,7.88ZM73.34,126.41h150.54c0-12.65-2.36-24.17-7.08-34.58-4.72-10.4-12.17-18.71-22.36-24.93-10.19-6.22-23.32-9.33-39.4-9.33-23.59,0-41.87,6.22-54.84,18.66-12.98,12.44-21.93,29.17-26.86,50.18Z"/>
  <path d="m412.69,323.91L318.44,6.11h72.37l58.22,239.96L513.37,14.15h62.72l64.33,231.92L698.96,6.11h72.37l-94.89,317.8h-65.62l-65.94-222.91-66.26,222.91h-65.94Z"/>
  <path d="m797.07,323.91v-76.23h75.27v76.23h-75.27Z"/>
</svg>